<svg xmlns="http://www.w3.org/2000/svg" width="133" height="30" fill="none"><path fill="#231F20" fill-rule="evenodd" d="m108.025 7.013.009 4.95 5.008.052-.037 16.959 5.979.037-.011-16.983 5.001-.038.04-4.948-15.989-.03Zm-45.972.004 13.244.052c2.005 0 3.544 1.146 3.573 2.953v15.91c0 2.398-1.568 2.985-3.573 2.985l-13.227-.016-.017-21.884Zm9.407 16.579c.559 0 1.052-.428 1.052-1.438l.014-8.364c0-.82-.77-1.851-1.524-1.851l-1.97.029.026 11.923 2.402-.3Zm19.08.585c.702.015.72-.986.72-1.49 0 0-.096-6.739-.201-15.614l5.88-.066.077 17.463s.05 4.47-3.814 4.47l-7.504.04s-4.468-.288-4.468-4.54V7.17l6.781.027-.017 15.494c.02.703.055 1.498.819 1.498l1.727-.009Zm9.463 4.71 5.99.054-.04-21.906-5.992.015.042 21.838ZM32.347 14.606l-2.216 5.903 4.416.015-2.2-5.918Zm-15.29-1.11c0 .787-.527 1.443-1.38 1.478l-2.708.022.074-10.348 2.635.028c.852-.066 1.343.657 1.38 1.513v7.307ZM41.99 6.981l7.725.046 3.283 8.424.035-8.437 5.913.034.08 21.936h-7.983l-3.403-8.173v8.173H37.105l-1.576-3.945-6.816-.012-1.516 3.957h-7.154l3.896-9.69c-1.155.45-2.222.572-3.675.58l-7.254.109.015 8.974L0 29 .054.042l19.723.036c5.232.104 8.317 3.003 9.28 7.022l6.755-.116 6.25 15.207-.073-15.21Z" clip-rule="evenodd"/><path fill="#000" d="M125.486 9.823c0-1.827 1.422-3.285 3.195-3.285 1.791 0 3.222 1.458 3.222 3.285 0 1.827-1.431 3.285-3.222 3.285-1.773 0-3.195-1.458-3.195-3.285Zm.657 0c0 1.503 1.107 2.673 2.538 2.673 1.449 0 2.565-1.17 2.565-2.673 0-1.503-1.116-2.673-2.565-2.673-1.431 0-2.538 1.17-2.538 2.673Zm1.44 1.683V8.113h1.305c.639 0 1.071.405 1.071 1.035 0 .522-.342.828-.621.9v.018s.036.036.117.189l.648 1.251h-.702l-.63-1.314h-.549v1.314h-.639Zm.639-1.782h.54c.333 0 .549-.216.549-.576 0-.351-.216-.549-.549-.549h-.54v1.125Z"/></svg>